<svg width="12" height="7" viewBox="0 0 12 7" fill="none" xmlns="http://www.w3.org/2000/svg">
<path d="M0.646277 5.64625L5.64628 0.646246C5.69271 0.599758 5.74786 0.562878 5.80856 0.537716C5.86926 0.512554 5.93432 0.499603 6.00003 0.499603C6.06574 0.499603 6.1308 0.512554 6.1915 0.537716C6.2522 0.562878 6.30734 0.599758 6.35378 0.646246L11.3538 5.64625C11.4476 5.74007 11.5003 5.86731 11.5003 6C11.5003 6.13268 11.4476 6.25993 11.3538 6.35375C11.26 6.44757 11.1327 6.50027 11 6.50027C10.8673 6.50027 10.7401 6.44757 10.6463 6.35375L6.00003 1.70687L1.35378 6.35375C1.30732 6.4002 1.25217 6.43705 1.19147 6.46219C1.13078 6.48733 1.06572 6.50027 1.00003 6.50027C0.934329 6.50027 0.869275 6.48733 0.808578 6.46219C0.747882 6.43705 0.692732 6.4002 0.646276 6.35375C0.599821 6.30729 0.562972 6.25214 0.53783 6.19144C0.512689 6.13075 0.499748 6.06569 0.499748 6C0.499748 5.9343 0.512689 5.86924 0.53783 5.80855C0.562972 5.74785 0.599821 5.6927 0.646277 5.64625Z" fill="#EA580C"/>
</svg>
