<svg width="28" height="28" viewBox="0 0 28 28" fill="none" xmlns="http://www.w3.org/2000/svg">
<path d="M19.899 16.5383L17.7498 14.3879V21.5C17.7498 21.7486 17.651 21.9871 17.4752 22.1629C17.2994 22.3387 17.0609 22.4375 16.8123 22.4375C16.5636 22.4375 16.3252 22.3387 16.1494 22.1629C15.9735 21.9871 15.8748 21.7486 15.8748 21.5V14.3879L13.7256 16.5383C13.6384 16.6254 13.535 16.6945 13.4212 16.7416C13.3074 16.7888 13.1855 16.813 13.0623 16.813C12.9391 16.813 12.8171 16.7888 12.7033 16.7416C12.5895 16.6945 12.4861 16.6254 12.399 16.5383C12.3119 16.4512 12.2428 16.3478 12.1957 16.234C12.1485 16.1202 12.1242 15.9982 12.1242 15.875C12.1242 15.7518 12.1485 15.6298 12.1957 15.516C12.2428 15.4022 12.3119 15.2988 12.399 15.2117L16.149 11.4617C16.2361 11.3746 16.3395 11.3054 16.4533 11.2582C16.5671 11.211 16.6891 11.1868 16.8123 11.1868C16.9355 11.1868 17.0575 11.211 17.1713 11.2582C17.2851 11.3054 17.3885 11.3746 17.4756 11.4617L21.2256 15.2117C21.3127 15.2988 21.3817 15.4022 21.4289 15.516C21.476 15.6298 21.5003 15.7518 21.5003 15.875C21.5003 15.9982 21.476 16.1202 21.4289 16.234C21.3817 16.3478 21.3127 16.4512 21.2256 16.5383C21.1384 16.6254 21.035 16.6945 20.9212 16.7416C20.8074 16.7888 20.6855 16.813 20.5623 16.813C20.4391 16.813 20.3171 16.7888 20.2033 16.7416C20.0895 16.6945 19.9861 16.6254 19.899 16.5383ZM17.7498 1.8125C15.8344 1.81395 13.9572 2.3483 12.3282 3.35578C10.6993 4.36327 9.38272 5.80414 8.52594 7.51719C7.50585 7.36729 6.46581 7.42933 5.47077 7.69943C4.47574 7.96953 3.54708 8.4419 2.7428 9.08702C1.93852 9.73215 1.27589 10.5362 0.796302 11.4489C0.316714 12.3616 0.0304646 13.3634 -0.0445669 14.3917C-0.119598 15.42 0.0181994 16.4528 0.36022 17.4254C0.702241 18.3981 1.24114 19.2898 1.94325 20.0448C2.64537 20.7999 3.49563 21.402 4.44092 21.8137C5.38621 22.2254 6.40623 22.4377 7.43727 22.4375H12.1248C12.3734 22.4375 12.6119 22.3387 12.7877 22.1629C12.9635 21.9871 13.0623 21.7486 13.0623 21.5C13.0623 21.2514 12.9635 21.0129 12.7877 20.8371C12.6119 20.6613 12.3734 20.5625 12.1248 20.5625H7.43727C5.94543 20.5625 4.51469 19.9699 3.45979 18.915C2.4049 17.8601 1.81227 16.4293 1.81227 14.9375C1.81227 13.4457 2.4049 12.0149 3.45979 10.96C4.51469 9.90513 5.94543 9.3125 7.43727 9.3125C7.56618 9.3125 7.69508 9.3125 7.82282 9.32656C7.56654 10.2373 7.43681 11.1789 7.43727 12.125C7.43727 12.3736 7.53604 12.6121 7.71186 12.7879C7.88767 12.9637 8.12613 13.0625 8.37477 13.0625C8.62341 13.0625 8.86187 12.9637 9.03768 12.7879C9.2135 12.6121 9.31227 12.3736 9.31227 12.125C9.3125 10.6039 9.72395 9.11107 10.5031 7.80461C11.2822 6.49815 12.4 5.42662 13.7382 4.70341C15.0765 3.98019 16.5853 3.6322 18.1051 3.69626C19.6249 3.76032 21.0991 4.23405 22.3717 5.06731C23.6443 5.90057 24.668 7.06237 25.3344 8.42976C26.0009 9.79715 26.2852 11.3193 26.1574 12.835C26.0297 14.3508 25.4945 15.8038 24.6086 17.0404C23.7227 18.2769 22.5189 19.2509 21.1248 19.8594C20.9268 19.9452 20.7645 20.0967 20.6652 20.2882C20.566 20.4798 20.5358 20.6998 20.5799 20.911C20.624 21.1222 20.7395 21.3118 20.9071 21.4477C21.0747 21.5836 21.284 21.6575 21.4998 21.657C21.629 21.6569 21.7567 21.6298 21.8748 21.5773C24.0466 20.6299 25.826 18.9635 26.9136 16.8583C28.0012 14.7532 28.3306 12.3377 27.8465 10.0181C27.3625 7.6986 26.0943 5.61652 24.2555 4.1221C22.4167 2.62768 20.1193 1.81209 17.7498 1.8125Z" fill="#172554"/>
</svg>
