<svg width="24" height="24" viewBox="0 0 24 24" fill="none" xmlns="http://www.w3.org/2000/svg">
<path d="M11.4695 10.2806C11.5391 10.3504 11.6218 10.4057 11.7129 10.4434C11.8039 10.4812 11.9015 10.5006 12.0001 10.5006C12.0987 10.5006 12.1963 10.4812 12.2873 10.4434C12.3784 10.4057 12.4611 10.3504 12.5307 10.2806L16.2807 6.53064C16.3505 6.46098 16.4058 6.37826 16.4435 6.28722C16.4813 6.19617 16.5007 6.09857 16.5007 6.00001C16.5007 5.90145 16.4813 5.80385 16.4435 5.71281C16.4058 5.62176 16.3505 5.53904 16.2807 5.46939L12.5307 1.71939C12.4611 1.64965 12.3784 1.59433 12.2873 1.55659C12.1963 1.51885 12.0987 1.49942 12.0001 1.49942C11.9015 1.49942 11.8039 1.51885 11.7129 1.55659C11.6218 1.59433 11.5391 1.64965 11.4695 1.71939L7.71948 5.46939C7.64974 5.53904 7.59443 5.62176 7.55668 5.71281C7.51894 5.80385 7.49951 5.90145 7.49951 6.00001C7.49951 6.09857 7.51894 6.19617 7.55668 6.28722C7.59443 6.37826 7.64974 6.46098 7.71948 6.53064L11.4695 10.2806ZM12.0001 3.31032L14.6898 6.00001L12.0001 8.6897L9.31041 6.00001L12.0001 3.31032ZM12.5307 13.7166C12.4611 13.6468 12.3784 13.5915 12.2873 13.5538C12.1963 13.516 12.0987 13.4966 12.0001 13.4966C11.9015 13.4966 11.8039 13.516 11.7129 13.5538C11.6218 13.5915 11.5391 13.6468 11.4695 13.7166L7.71948 17.4666C7.64974 17.5362 7.59443 17.6189 7.55668 17.71C7.51894 17.801 7.49951 17.8986 7.49951 17.9972C7.49951 18.0958 7.51894 18.1934 7.55668 18.2844C7.59443 18.3755 7.64974 18.4582 7.71948 18.5278L11.4695 22.2778C11.5391 22.3476 11.6218 22.4029 11.7129 22.4406C11.8039 22.4784 11.9015 22.4978 12.0001 22.4978C12.0987 22.4978 12.1963 22.4784 12.2873 22.4406C12.3784 22.4029 12.4611 22.3476 12.5307 22.2778L16.2807 18.5278C16.3505 18.4582 16.4058 18.3755 16.4435 18.2844C16.4813 18.1934 16.5007 18.0958 16.5007 17.9972C16.5007 17.8986 16.4813 17.801 16.4435 17.71C16.4058 17.6189 16.3505 17.5362 16.2807 17.4666L12.5307 13.7166ZM12.0001 20.6897L9.31041 18L12.0001 15.3103L14.6898 18L12.0001 20.6897ZM22.2807 11.4694L18.5307 7.71939C18.4611 7.64965 18.3784 7.59433 18.2873 7.55659C18.1963 7.51885 18.0987 7.49942 18.0001 7.49942C17.9015 7.49942 17.8039 7.51885 17.7129 7.55659C17.6218 7.59433 17.5391 7.64965 17.4695 7.71939L13.7195 11.4694C13.6497 11.539 13.5944 11.6218 13.5567 11.7128C13.5189 11.8039 13.4995 11.9014 13.4995 12C13.4995 12.0986 13.5189 12.1962 13.5567 12.2872C13.5944 12.3783 13.6497 12.461 13.7195 12.5306L17.4695 16.2806C17.5391 16.3504 17.6218 16.4057 17.7129 16.4434C17.8039 16.4812 17.9015 16.5006 18.0001 16.5006C18.0987 16.5006 18.1963 16.4812 18.2873 16.4434C18.3784 16.4057 18.4611 16.3504 18.5307 16.2806L22.2807 12.5306C22.3505 12.461 22.4058 12.3783 22.4435 12.2872C22.4813 12.1962 22.5007 12.0986 22.5007 12C22.5007 11.9014 22.4813 11.8039 22.4435 11.7128C22.4058 11.6218 22.3505 11.539 22.2807 11.4694ZM18.0001 14.6897L15.3104 12L18.0001 9.31032L20.6898 12L18.0001 14.6897ZM10.2807 11.4694L6.53073 7.71939C6.46107 7.64965 6.37836 7.59433 6.28731 7.55659C6.19626 7.51885 6.09866 7.49942 6.0001 7.49942C5.90154 7.49942 5.80395 7.51885 5.7129 7.55659C5.62185 7.59433 5.53913 7.64965 5.46948 7.71939L1.71948 11.4694C1.64974 11.539 1.59443 11.6218 1.55668 11.7128C1.51894 11.8039 1.49951 11.9014 1.49951 12C1.49951 12.0986 1.51894 12.1962 1.55668 12.2872C1.59443 12.3783 1.64974 12.461 1.71948 12.5306L5.46948 16.2806C5.53913 16.3504 5.62185 16.4057 5.7129 16.4434C5.80395 16.4812 5.90154 16.5006 6.0001 16.5006C6.09866 16.5006 6.19626 16.4812 6.28731 16.4434C6.37836 16.4057 6.46107 16.3504 6.53073 16.2806L10.2807 12.5306C10.3505 12.461 10.4058 12.3783 10.4435 12.2872C10.4813 12.1962 10.5007 12.0986 10.5007 12C10.5007 11.9014 10.4813 11.8039 10.4435 11.7128C10.4058 11.6218 10.3505 11.539 10.2807 11.4694ZM6.0001 14.6897L3.31041 12L6.0001 9.31032L8.68979 12L6.0001 14.6897Z" fill="#172554"/>
</svg>
