<svg width="16" height="17" viewBox="0 0 16 17" fill="none" xmlns="http://www.w3.org/2000/svg">
<path d="M15.4569 8.36891C15.435 8.31954 14.9056 7.14516 13.7287 5.96829C12.1606 4.40016 10.18 3.57141 7.99999 3.57141C5.81999 3.57141 3.83937 4.40016 2.27124 5.96829C1.09437 7.14516 0.562494 8.32141 0.543119 8.36891C0.51469 8.43286 0.5 8.50206 0.5 8.57204C0.5 8.64202 0.51469 8.71122 0.543119 8.77516C0.564994 8.82454 1.09437 9.99829 2.27124 11.1752C3.83937 12.7427 5.81999 13.5714 7.99999 13.5714C10.18 13.5714 12.1606 12.7427 13.7287 11.1752C14.9056 9.99829 15.435 8.82454 15.4569 8.77516C15.4853 8.71122 15.5 8.64202 15.5 8.57204C15.5 8.50206 15.4853 8.43286 15.4569 8.36891ZM7.99999 12.5714C6.07624 12.5714 4.39562 11.872 3.00437 10.4933C2.43352 9.92559 1.94786 9.27826 1.56249 8.57141C1.94776 7.8645 2.43343 7.21715 3.00437 6.64954C4.39562 5.27079 6.07624 4.57141 7.99999 4.57141C9.92374 4.57141 11.6044 5.27079 12.9956 6.64954C13.5676 7.21701 14.0543 7.86436 14.4406 8.57141C13.99 9.41266 12.0269 12.5714 7.99999 12.5714ZM7.99999 5.57141C7.40665 5.57141 6.82663 5.74736 6.33328 6.077C5.83994 6.40665 5.45542 6.87518 5.22836 7.42336C5.00129 7.97154 4.94188 8.57474 5.05764 9.15668C5.17339 9.73863 5.45912 10.2732 5.87867 10.6927C6.29823 11.1123 6.83278 11.398 7.41472 11.5138C7.99667 11.6295 8.59987 11.5701 9.14804 11.3431C9.69622 11.116 10.1648 10.7315 10.4944 10.2381C10.824 9.74477 11 9.16475 11 8.57141C10.9992 7.77602 10.6828 7.01343 10.1204 6.451C9.55797 5.88857 8.79539 5.57224 7.99999 5.57141ZM7.99999 10.5714C7.60443 10.5714 7.21775 10.4541 6.88885 10.2344C6.55996 10.0146 6.30361 9.70223 6.15224 9.33678C6.00086 8.97133 5.96125 8.56919 6.03842 8.18123C6.11559 7.79327 6.30608 7.4369 6.58578 7.1572C6.86549 6.87749 7.22185 6.68701 7.60981 6.60984C7.99778 6.53267 8.39991 6.57228 8.76536 6.72365C9.13081 6.87503 9.44317 7.13137 9.66293 7.46027C9.8827 7.78917 9.99999 8.17585 9.99999 8.57141C9.99999 9.10184 9.78928 9.61055 9.41421 9.98562C9.03913 10.3607 8.53043 10.5714 7.99999 10.5714Z" fill="#9CA3AF"/>
</svg>
