<svg width="21" height="17" viewBox="0 0 21 17" fill="none" xmlns="http://www.w3.org/2000/svg">
<path d="M1.625 9C1.42609 9 1.23532 8.92098 1.09467 8.78033C0.954018 8.63968 0.875 8.44891 0.875 8.25C0.875 8.05109 0.954018 7.86032 1.09467 7.71967C1.23532 7.57902 1.42609 7.5 1.625 7.5H4.25C4.44891 7.5 4.63968 7.42098 4.78033 7.28033C4.92098 7.13968 5 6.94891 5 6.75C5 6.55109 4.92098 6.36032 4.78033 6.21967C4.63968 6.07902 4.44891 6 4.25 6H2.75C2.15326 6 1.58097 5.76295 1.15901 5.34099C0.737053 4.91903 0.5 4.34674 0.5 3.75C0.5 3.15326 0.737053 2.58097 1.15901 2.15901C1.58097 1.73705 2.15326 1.5 2.75 1.5C2.75 1.30109 2.82902 1.11032 2.96967 0.96967C3.11032 0.829018 3.30109 0.75 3.5 0.75C3.69891 0.75 3.88968 0.829018 4.03033 0.96967C4.17098 1.11032 4.25 1.30109 4.25 1.5H5C5.19891 1.5 5.38968 1.57902 5.53033 1.71967C5.67098 1.86032 5.75 2.05109 5.75 2.25C5.75 2.44891 5.67098 2.63968 5.53033 2.78033C5.38968 2.92098 5.19891 3 5 3H2.75C2.55109 3 2.36032 3.07902 2.21967 3.21967C2.07902 3.36032 2 3.55109 2 3.75C2 3.94891 2.07902 4.13968 2.21967 4.28033C2.36032 4.42098 2.55109 4.5 2.75 4.5H4.25C4.84674 4.5 5.41903 4.73705 5.84099 5.15901C6.26295 5.58097 6.5 6.15326 6.5 6.75C6.5 7.34674 6.26295 7.91903 5.84099 8.34099C5.41903 8.76295 4.84674 9 4.25 9C4.25 9.19891 4.17098 9.38968 4.03033 9.53033C3.88968 9.67098 3.69891 9.75 3.5 9.75C3.30109 9.75 3.11032 9.67098 2.96967 9.53033C2.82902 9.38968 2.75 9.19891 2.75 9H1.625ZM20.75 2.25V15C20.75 15.3978 20.592 15.7794 20.3107 16.0607C20.0294 16.342 19.6478 16.5 19.25 16.5H2.75C2.35218 16.5 1.97064 16.342 1.68934 16.0607C1.40804 15.7794 1.25 15.3978 1.25 15V11.25C1.25 11.0511 1.32902 10.8603 1.46967 10.7197C1.61032 10.579 1.80109 10.5 2 10.5C2.19891 10.5 2.38968 10.579 2.53033 10.7197C2.67098 10.8603 2.75 11.0511 2.75 11.25V15H14V12H6.5C6.30109 12 6.11032 11.921 5.96967 11.7803C5.82902 11.6397 5.75 11.4489 5.75 11.25C5.75 11.0511 5.82902 10.8603 5.96967 10.7197C6.11032 10.579 6.30109 10.5 6.5 10.5H14V7.5H8.75C8.55109 7.5 8.36032 7.42098 8.21967 7.28033C8.07902 7.13968 8 6.94891 8 6.75C8 6.55109 8.07902 6.36032 8.21967 6.21967C8.36032 6.07902 8.55109 6 8.75 6H19.25V3H8C7.80109 3 7.61032 2.92098 7.46967 2.78033C7.32902 2.63968 7.25 2.44891 7.25 2.25C7.25 2.05109 7.32902 1.86032 7.46967 1.71967C7.61032 1.57902 7.80109 1.5 8 1.5H20C20.1989 1.5 20.3897 1.57902 20.5303 1.71967C20.671 1.86032 20.75 2.05109 20.75 2.25ZM15.5 10.5H19.25V7.5H15.5V10.5ZM19.25 15V12H15.5V15H19.25Z" fill="#172554"/>
</svg>
