<svg width="20" height="20" viewBox="0 0 20 20" fill="none" xmlns="http://www.w3.org/2000/svg">
<path d="M9.99956 5.5C9.10954 5.5 8.23951 5.76392 7.49949 6.25838C6.75947 6.75285 6.18269 7.45565 5.8421 8.27792C5.5015 9.10019 5.41239 10.005 5.58602 10.8779C5.75965 11.7508 6.18824 12.5526 6.81757 13.182C7.44691 13.8113 8.24873 14.2399 9.12165 14.4135C9.99456 14.5872 10.8994 14.4981 11.7216 14.1575C12.5439 13.8169 13.2467 13.2401 13.7412 12.5001C14.2356 11.76 14.4996 10.89 14.4996 10C14.4983 8.8069 14.0238 7.66303 13.1802 6.81939C12.3365 5.97574 11.1926 5.50124 9.99956 5.5ZM9.99956 13C9.40621 13 8.82619 12.8241 8.33284 12.4944C7.8395 12.1648 7.45498 11.6962 7.22792 11.148C7.00085 10.5999 6.94144 9.99667 7.0572 9.41473C7.17295 8.83278 7.45868 8.29823 7.87823 7.87868C8.29779 7.45912 8.83234 7.1734 9.41428 7.05764C9.99623 6.94189 10.5994 7.0013 11.1476 7.22836C11.6958 7.45542 12.1643 7.83994 12.494 8.33329C12.8236 8.82664 12.9996 9.40665 12.9996 10C12.9996 10.7956 12.6835 11.5587 12.1209 12.1213C11.5583 12.6839 10.7952 13 9.99956 13ZM18.2496 10.2025C18.2533 10.0675 18.2533 9.9325 18.2496 9.7975L19.6483 8.05C19.7216 7.95825 19.7724 7.85055 19.7965 7.73559C19.8206 7.62062 19.8174 7.50161 19.7871 7.38812C19.5578 6.52619 19.2147 5.69861 18.7671 4.92719C18.7084 4.82623 18.6271 4.74036 18.5294 4.67639C18.4318 4.61243 18.3205 4.57215 18.2046 4.55875L15.9808 4.31125C15.8883 4.21375 15.7946 4.12 15.6996 4.03L15.4371 1.80062C15.4236 1.68457 15.3831 1.57328 15.319 1.47562C15.2549 1.37796 15.1688 1.29663 15.0677 1.23812C14.296 0.79126 13.4685 0.448592 12.6067 0.21906C12.4932 0.188869 12.3741 0.185781 12.2592 0.210045C12.1442 0.234308 12.0365 0.285244 11.9449 0.358747L10.2021 1.75C10.0671 1.75 9.93206 1.75 9.79706 1.75L8.04955 0.35406C7.9578 0.280717 7.85011 0.229951 7.73514 0.205851C7.62018 0.181751 7.50116 0.184991 7.38768 0.215309C6.52588 0.445022 5.69836 0.788013 4.92674 1.23531C4.82579 1.29393 4.73992 1.3753 4.67595 1.47296C4.61199 1.57061 4.5717 1.68184 4.5583 1.79781L4.3108 4.02531C4.2133 4.11843 4.11955 4.21218 4.02955 4.30656L1.80018 4.5625C1.68413 4.576 1.57284 4.61643 1.47518 4.68056C1.37752 4.74469 1.29619 4.83075 1.23768 4.93187C0.790817 5.70359 0.448149 6.5311 0.218617 7.39281C0.188427 7.50636 0.185339 7.62542 0.209602 7.74039C0.233866 7.85536 0.284802 7.96302 0.358305 8.05469L1.74955 9.7975C1.74955 9.9325 1.74955 10.0675 1.74955 10.2025L0.353617 11.95C0.280275 12.0417 0.229509 12.1494 0.205409 12.2644C0.181309 12.3794 0.184548 12.4984 0.214867 12.6119C0.44417 13.4738 0.787182 14.3014 1.23487 15.0728C1.29349 15.1738 1.37486 15.2596 1.47251 15.3236C1.57017 15.3876 1.6814 15.4278 1.79737 15.4412L4.02112 15.6887C4.11424 15.7862 4.20799 15.88 4.30237 15.97L4.56206 18.1994C4.57556 18.3154 4.61598 18.4267 4.68011 18.5244C4.74424 18.622 4.8303 18.7034 4.93143 18.7619C5.70315 19.2087 6.53066 19.5514 7.39237 19.7809C7.50592 19.8111 7.62498 19.8142 7.73995 19.79C7.85491 19.7657 7.96257 19.7148 8.05424 19.6412L9.79706 18.25C9.93206 18.2537 10.0671 18.2537 10.2021 18.25L11.9496 19.6487C12.0413 19.7221 12.149 19.7729 12.264 19.797C12.3789 19.8211 12.4979 19.8178 12.6114 19.7875C13.4734 19.5582 14.3009 19.2152 15.0724 18.7675C15.1733 18.7089 15.2592 18.6275 15.3232 18.5299C15.3871 18.4322 15.4274 18.321 15.4408 18.205L15.6883 15.9812C15.7858 15.8887 15.8796 15.795 15.9696 15.7L18.1989 15.4375C18.315 15.424 18.4263 15.3836 18.5239 15.3194C18.6216 15.2553 18.7029 15.1693 18.7614 15.0681C19.2083 14.2964 19.551 13.4689 19.7805 12.6072C19.8107 12.4936 19.8138 12.3746 19.7895 12.2596C19.7652 12.1446 19.7143 12.037 19.6408 11.9453L18.2496 10.2025ZM16.7402 9.59312C16.7561 9.86414 16.7561 10.1359 16.7402 10.4069C16.729 10.5924 16.7871 10.7755 16.9033 10.9206L18.2336 12.5828C18.081 13.0679 17.8855 13.5385 17.6496 13.9891L15.5308 14.2291C15.3463 14.2495 15.1759 14.3377 15.0527 14.4766C14.8722 14.6795 14.68 14.8717 14.4771 15.0522C14.3382 15.1754 14.25 15.3458 14.2296 15.5303L13.9942 17.6472C13.5438 17.8833 13.0732 18.0787 12.588 18.2312L10.9249 16.9009C10.7918 16.7946 10.6265 16.7367 10.4561 16.7369H10.4111C10.1401 16.7528 9.86838 16.7528 9.59737 16.7369C9.41182 16.7257 9.22874 16.7838 9.08362 16.9L7.41674 18.2312C6.93162 18.0786 6.46102 17.8831 6.01049 17.6472L5.77049 15.5312C5.75001 15.3467 5.66182 15.1764 5.52299 15.0531C5.32003 14.8727 5.12783 14.6805 4.94737 14.4775C4.82412 14.3387 4.65376 14.2505 4.46924 14.23L2.35237 13.9937C2.1163 13.5433 1.92084 13.0727 1.7683 12.5875L3.09862 10.9244C3.21478 10.7793 3.27291 10.5962 3.26174 10.4106C3.24581 10.1396 3.24581 9.86789 3.26174 9.59687C3.27291 9.41132 3.21478 9.22824 3.09862 9.08312L1.7683 7.41718C1.92095 6.93206 2.11641 6.46146 2.35237 6.01093L4.46831 5.77094C4.65282 5.75045 4.82318 5.66227 4.94643 5.52344C5.12689 5.32047 5.31909 5.12827 5.52205 4.94781C5.66144 4.82448 5.74999 4.65373 5.77049 4.46875L6.00581 2.35281C6.45628 2.11674 6.92689 1.92128 7.41206 1.76875L9.07518 3.09906C9.2203 3.21522 9.40338 3.27335 9.58893 3.26219C9.85995 3.24625 10.1317 3.24625 10.4027 3.26219C10.5882 3.27335 10.7713 3.21522 10.9164 3.09906L12.5824 1.76875C13.0675 1.9214 13.5381 2.11685 13.9886 2.35281L14.2286 4.46875C14.2491 4.65326 14.3373 4.82362 14.4761 4.94687C14.6791 5.12733 14.8713 5.31954 15.0517 5.5225C15.175 5.66133 15.3454 5.74952 15.5299 5.77L17.6467 6.00531C17.8828 6.45578 18.0783 6.92639 18.2308 7.41156L16.9005 9.07469C16.7832 9.22103 16.725 9.40599 16.7374 9.59312H16.7402Z" fill="#172554"/>
</svg>
