<svg width="7" height="11" viewBox="0 0 7 11" fill="none" xmlns="http://www.w3.org/2000/svg">
<path d="M6.35375 5.85378L1.35375 10.8538C1.28382 10.9238 1.1947 10.9715 1.09765 10.9908C1.00061 11.0101 0.900016 11.0002 0.808605 10.9623C0.717193 10.9245 0.639075 10.8603 0.58414 10.778C0.529205 10.6957 0.499922 10.599 0.5 10.5V0.500028C0.499922 0.40108 0.529205 0.304333 0.58414 0.222037C0.639075 0.13974 0.717193 0.0755925 0.808605 0.0377163C0.900016 -0.000159964 1.00061 -0.0100623 1.09765 0.00926293C1.1947 0.0285881 1.28382 0.0762719 1.35375 0.146278L6.35375 5.14628C6.40024 5.19271 6.43712 5.24786 6.46228 5.30856C6.48744 5.36926 6.50039 5.43432 6.50039 5.50003C6.50039 5.56574 6.48744 5.6308 6.46228 5.6915C6.43712 5.7522 6.40024 5.80734 6.35375 5.85378Z" fill="#172554"/>
</svg>
