<svg width="40" height="40" viewBox="0 0 40 40" fill="none" xmlns="http://www.w3.org/2000/svg">
<path d="M20 0.5C16.1433 0.5 12.3731 1.64366 9.16639 3.78634C5.95963 5.92903 3.46027 8.97451 1.98436 12.5377C0.508449 16.1008 0.122284 20.0216 0.874696 23.8043C1.62711 27.5869 3.4843 31.0615 6.21143 33.7886C8.93855 36.5157 12.4131 38.3729 16.1957 39.1253C19.9784 39.8777 23.8992 39.4916 27.4623 38.0156C31.0255 36.5397 34.071 34.0404 36.2137 30.8336C38.3564 27.6269 39.5 23.8567 39.5 20C39.4945 14.83 37.4383 9.87322 33.7826 6.21745C30.1268 2.56167 25.1701 0.50546 20 0.5ZM20 36.5C16.7366 36.5 13.5465 35.5323 10.8331 33.7192C8.11969 31.9062 6.00484 29.3293 4.756 26.3143C3.50715 23.2993 3.1804 19.9817 3.81705 16.781C4.45371 13.5803 6.02518 10.6403 8.33275 8.33274C10.6403 6.02517 13.5803 4.4537 16.781 3.81704C19.9817 3.18039 23.2993 3.50714 26.3143 4.75599C29.3293 6.00483 31.9062 8.11968 33.7193 10.8331C35.5323 13.5465 36.5 16.7366 36.5 20C36.495 24.3745 34.7551 28.5685 31.6618 31.6618C28.5685 34.7551 24.3746 36.495 20 36.5ZM18.5 21.5V11C18.5 10.6022 18.658 10.2206 18.9393 9.93934C19.2207 9.65804 19.6022 9.5 20 9.5C20.3978 9.5 20.7794 9.65804 21.0607 9.93934C21.342 10.2206 21.5 10.6022 21.5 11V21.5C21.5 21.8978 21.342 22.2794 21.0607 22.5607C20.7794 22.842 20.3978 23 20 23C19.6022 23 19.2207 22.842 18.9393 22.5607C18.658 22.2794 18.5 21.8978 18.5 21.5ZM22.25 28.25C22.25 28.695 22.118 29.13 21.8708 29.5C21.6236 29.87 21.2722 30.1584 20.861 30.3287C20.4499 30.499 19.9975 30.5436 19.5611 30.4568C19.1246 30.37 18.7237 30.1557 18.409 29.841C18.0944 29.5263 17.8801 29.1254 17.7932 28.689C17.7064 28.2525 17.751 27.8001 17.9213 27.389C18.0916 26.9778 18.38 26.6264 18.75 26.3792C19.12 26.132 19.555 26 20 26C20.5967 26 21.169 26.2371 21.591 26.659C22.013 27.081 22.25 27.6533 22.25 28.25Z" fill="#B91C1C"/>
</svg>
